HIERARCHY
ROOT hip
{
	OFFSET 0.000000 0.000000 0.000000 
	CHANNELS 6 Xposition Yposition Zposition Xrotation Zrotation Yrotation
	JOINT abdomen
	{
		OFFSET 0.000000 3.402643 0.000000 
		CHANNELS 3 Xrotation Zrotation Yrotation
		JOINT chest
		{
			OFFSET 0.000000 8.438565 -0.680529 
			CHANNELS 3 Xrotation Zrotation Yrotation
			JOINT neck
			{
				OFFSET 0.000000 10.207942 -0.272212 
				CHANNELS 3 Xrotation Zrotation Yrotation
				JOINT head
				{
					OFFSET 0.000000 3.130431 0.000000 
					CHANNELS 3 Xrotation Zrotation Yrotation
					End Site
					{
						OFFSET 0.000000 3.130435 0.000000 
					}
				}
			}
			JOINT lCollar
			{
				OFFSET 3.470700 6.669187 -0.816635 
				CHANNELS 3 Yrotation Zrotation Xrotation
				JOINT lShldr
				{
					OFFSET 3.198488 0.000000 0.000000 
					CHANNELS 3 Zrotation Yrotation Xrotation
					JOINT lForeArm
					{
						OFFSET 10.139888 0.000000 0.000000 
						CHANNELS 3 Yrotation Zrotation Xrotation
						JOINT lHand
						{
							OFFSET 8.370511 0.000000 0.000000 
							CHANNELS 3 Zrotation Yrotation Xrotation
							End Site
							{
								OFFSET 4.083176 0.000000 0.000000 
							}
						}
					}
				}
			}
			JOINT rCollar
			{
				OFFSET -3.470700 6.669187 -0.816635 
				CHANNELS 3 Yrotation Zrotation Xrotation
				JOINT rShldr
				{
					OFFSET -3.198488 0.000000 0.000000 
					CHANNELS 3 Zrotation Yrotation Xrotation
					JOINT rForeArm
					{
						OFFSET -10.139888 0.000000 0.000000 
						CHANNELS 3 Yrotation Zrotation Xrotation
						JOINT rHand
						{
							OFFSET -8.370511 0.000000 0.000000 
							CHANNELS 3 Zrotation Yrotation Xrotation
							End Site
							{
								OFFSET -4.083176 0.000000 0.000000 
							}
						}
					}
				}
			}
		}
	}
	JOINT lThigh
	{
		OFFSET 5.308129 -1.633274 1.361059 
		CHANNELS 3 Xrotation Zrotation Yrotation
		JOINT lShin
		{
			OFFSET -2.041588 -20.007561 0.000000 
			CHANNELS 3 Xrotation Zrotation Yrotation
			JOINT lFoot
			{
				OFFSET 0.000000 -19.190928 -1.224953 
				CHANNELS 3 Xrotation Yrotation Zrotation
				End Site
				{
					OFFSET 0.000000 -2.449906 4.627600 
				}
			}
		}
	}
	JOINT rThigh
	{
		OFFSET -5.308129 -1.633274 1.361059 
		CHANNELS 3 Xrotation Zrotation Yrotation
		JOINT rShin
		{
			OFFSET 2.041588 -20.007561 0.000000 
			CHANNELS 3 Xrotation Zrotation Yrotation
			JOINT rFoot
			{
				OFFSET 0.000000 -19.190928 -1.224953 
				CHANNELS 3 Xrotation Yrotation Zrotation
				End Site
				{
					OFFSET 0.000000 -2.449906 4.627600 
				}
			}
		}
	}
}
MOTION
Frames: 16
Frame Time: 0.011111
-4.005977 50.001961 -33.721771 26.641466 -5.167145 15.151957 16.636328 7.704716 1.179436 -25.871601 -0.548080 -0.405347 -16.916901 -3.345156 -1.193727 18.669554 9.057883 -2.307889 -5.788594 -15.737329 -1.465587 17.455154 -6.905803 22.108091 -40.450974 4.897863 4.543378 8.524705 12.647240 -90.960342 7.611086 14.174596 -1.900835 -26.773039 9.392692 33.210308 42.209171 -5.515755 5.184997 -8.534408 -12.637552 55.277203 -43.169628 -0.048639 -3.600132 42.014145 -4.501797 -6.346402 -36.029270 2.290235 0.875537 -61.002010 -8.420658 43.832912 38.743675 4.745267 5.951946 -24.565905 7.318386 5.709303 
-4.227465 49.939232 -33.638554 26.896006 -5.644695 16.545668 17.348297 7.779230 1.609941 -25.900942 -0.603801 -0.299580 -17.238455 -3.784858 -1.516948 17.831612 9.578689 -3.153796 -5.788594 -15.737329 -1.465587 17.247829 -6.536923 21.632532 -40.259087 4.835799 4.481191 8.524705 12.647240 -91.263077 7.611086 14.174596 -1.900835 -26.008080 11.052373 33.437744 41.985107 -5.440945 5.104801 -8.534408 -12.637552 54.574078 -44.016342 -0.038688 -3.657023 42.438446 -4.462879 -6.407520 -34.909077 2.081740 0.489336 -60.755878 -8.812867 43.182079 39.219257 4.706046 6.000059 -24.536619 7.467978 5.781290 
-4.454072 49.897301 -33.561100 27.102573 -6.376754 17.999683 18.074324 8.162794 2.188613 -26.076748 -0.756748 -0.179476 -17.414881 -4.292054 -1.836908 16.852234 10.173711 -4.019355 -5.788594 -15.737329 -1.465587 17.010386 -6.196407 21.047529 -40.167908 4.800074 4.443233 8.524705 12.647240 -91.849007 7.611086 14.174596 -1.900835 -25.342102 12.964530 33.794376 42.056263 -5.461102 5.119900 -8.534408 -12.637552 54.730331 -44.996861 0.175457 -3.984250 42.803894 -4.429480 -6.446546 -33.797947 1.572294 -0.061149 -60.390278 -8.886921 42.663822 39.712742 4.686269 6.045682 -25.593544 5.931496 5.044919 
-4.693164 49.886738 -33.500923 27.328928 -7.270626 19.587000 18.839334 8.749234 2.751539 -26.184261 -0.990178 -0.078347 -17.817808 -4.863562 -2.206968 15.953556 10.933842 -5.015232 -5.788594 -15.737329 -1.465587 16.759644 -5.953273 20.226048 -40.107056 4.776381 4.420430 8.524705 12.647240 -92.591202 7.611086 14.174596 -1.900835 -24.553453 14.800706 33.588821 41.933678 -5.417942 5.082449 -8.534408 -12.637552 53.646339 -46.044037 0.429478 -4.438651 43.060673 -4.406931 -6.469922 -32.641155 0.906678 -0.689173 -59.994080 -8.852125 42.161507 40.217896 4.634246 6.111111 -27.215014 2.860615 3.451543 
-4.932255 49.902740 -33.435951 27.580973 -8.349072 21.498983 19.453899 9.628940 3.273055 -26.301979 -1.453631 -0.004373 -18.196203 -5.599486 -2.590944 15.127351 12.029738 -6.071808 -5.788594 -15.737329 -1.465587 16.677685 -5.823455 19.865009 -40.076519 4.764812 4.414331 8.524705 12.647240 -92.952530 7.611086 14.174596 -1.900835 -23.640707 16.473320 33.080246 41.954636 -5.429694 5.088138 -8.534408 -12.637552 51.810406 -47.242096 0.615259 -5.051905 43.177937 -4.413964 -6.482672 -31.225498 0.445896 -1.225230 -59.672913 -8.821920 41.545368 40.652893 4.604816 6.147991 -28.584753 -0.444032 1.619111 
-5.190230 49.926750 -33.336727 27.753815 -9.275033 23.476318 20.143566 10.387314 3.617951 -26.654877 -1.960585 0.046070 -18.485170 -6.249672 -2.964967 14.373959 13.002871 -7.095162 -5.788594 -15.737329 -1.465587 16.833723 -5.477007 20.446285 -40.035942 4.746074 4.391140 8.524705 12.647240 -92.581429 7.611086 14.174596 -1.900835 -22.580200 18.480801 32.157578 41.822559 -5.386812 5.038978 -8.534408 -12.637552 49.281113 -48.229019 0.634984 -5.651068 43.109200 -4.414044 -6.476780 -29.696283 0.153384 -1.608649 -59.354557 -8.876978 40.877979 41.047852 4.562903 6.226278 -29.751936 -2.867667 0.173316 
-5.511578 49.955555 -33.234627 28.024534 -9.810254 25.264194 20.902781 10.436242 3.834070 -26.869997 -2.004545 0.089380 -18.805054 -6.904967 -3.296940 13.463202 13.795249 -8.107622 -5.788594 -15.737329 -1.465587 16.660006 -5.217035 20.327669 -39.945107 4.718104 4.369486 8.524705 12.647240 -92.708382 7.611086 14.174596 -1.900835 -21.744980 20.797651 31.429716 41.506954 -5.277454 4.930002 -8.534408 -12.637552 47.161964 -49.020607 0.566676 -5.848017 42.902431 -4.433537 -6.437176 -28.087399 -0.314518 -2.064908 -59.191307 -8.852789 40.972710 41.284397 4.559285 6.235559 -30.835882 -5.299067 -1.312298 
-5.845090 50.017014 -33.155251 28.266022 -10.479876 26.921867 21.675154 10.479713 4.562040 -27.300293 -2.096223 0.276469 -18.641880 -7.534953 -3.815695 12.286996 14.452781 -9.470971 -5.788594 -15.737329 -1.465587 16.332577 -5.518718 19.111139 -39.834511 4.683735 4.329772 8.524705 12.647240 -93.890030 7.611086 14.174596 -1.900835 -21.113853 22.609230 31.983376 41.192436 -5.173254 4.819079 -8.534408 -12.637552 45.902203 -49.870193 0.703290 -6.119600 42.616375 -4.452964 -6.409490 -26.294237 -0.703365 -2.455263 -59.028332 -8.538315 41.547935 41.354893 4.539729 6.234629 -31.574249 -8.289613 -3.042833 
-6.117468 50.150154 -33.036503 28.274099 -11.760340 28.864082 22.214291 11.582053 5.446825 -27.655016 -2.701136 0.454373 -18.470543 -8.207353 -4.323164 11.203164 15.284845 -10.823787 -5.788594 -15.737329 -1.465587 16.335289 -5.724001 18.849466 -39.864285 4.688518 4.339276 8.524705 12.647240 -94.143936 7.611086 14.174596 -1.900835 -20.347563 24.433256 32.483749 41.111324 -5.145232 4.786570 -8.534408 -12.637552 44.769382 -50.870899 1.084659 -7.170047 42.200943 -4.492124 -6.378398 -24.418793 -1.666218 -3.060620 -58.607742 -8.236143 41.392979 41.373711 4.549373 6.239721 -32.364185 -10.643080 -4.467023 
-6.384086 50.287785 -32.914238 28.277311 -13.219553 30.931303 22.581640 13.018604 6.253265 -27.874949 -3.404678 0.569267 -18.561066 -9.005032 -4.746269 10.250000 16.174946 -12.095201 -5.788594 -15.737329 -1.465587 16.331676 -5.831363 19.132662 -39.824009 4.677736 4.331398 8.524705 12.647240 -93.655655 7.611086 14.174596 -1.900835 -19.578030 26.356079 31.747631 41.354359 -5.221061 4.866437 -8.534408 -12.637552 42.689312 -52.144764 1.474963 -8.345799 41.767509 -4.521342 -6.312241 -22.342133 -3.014065 -3.763784 -58.288773 -8.214481 40.400280 41.295609 4.539694 6.239190 -33.188236 -12.426326 -5.651327 
-6.772968 50.344757 -32.866230 28.779770 -13.884748 32.559639 23.369669 13.079656 6.925294 -28.698891 -3.646743 0.771254 -18.625641 -10.000692 -5.094447 9.495800 17.175755 -13.288484 -5.788594 -15.737329 -1.465587 16.207106 -6.110591 19.081915 -39.652168 4.611548 4.264057 8.524705 12.647240 -93.890030 7.611086 14.174596 -1.900835 -18.862871 28.067772 30.561487 41.873131 -5.403240 5.064500 -8.534408 -12.637552 39.964706 -53.363400 1.465130 -8.631816 41.183529 -4.573544 -6.270830 -20.002480 -3.959275 -4.170441 -58.893055 -8.527454 40.113007 41.314728 4.549592 6.234698 -33.488873 -14.016852 -6.530038 
-7.091436 50.439175 -32.760284 29.216558 -15.845840 34.689911 22.940977 14.742535 7.834017 -28.844296 -4.420022 0.939247 -18.635389 -10.871678 -5.523699 8.486618 18.042723 -14.622778 -5.788594 -15.737329 -1.465587 15.938839 -6.678271 17.893373 -39.581661 4.588251 4.241457 8.524705 12.647240 -95.306046 7.611086 14.174596 -1.900835 -18.303946 29.886679 30.540707 41.964378 -5.428606 5.089356 -8.534408 -12.637552 37.474468 -55.644558 1.954524 -9.857176 40.481667 -4.638550 -6.174217 -17.213907 -5.541331 -4.681779 -59.654762 -8.507834 38.979782 41.294407 4.549624 6.252354 -34.304573 -15.299975 -7.506527 
-7.440312 50.535198 -32.596092 29.920549 -17.244251 36.696835 22.466894 15.408134 8.472635 -28.879332 -4.865327 1.111658 -18.799961 -11.595737 -6.076773 7.410350 18.545261 -16.232405 -5.788594 -15.737329 -1.465587 15.608946 -7.390663 16.611895 -39.682434 4.623915 4.279715 8.524705 12.647240 -96.282608 7.611086 14.174596 -1.900835 -18.121775 31.657709 31.214439 42.147953 -5.494061 5.160305 -8.534408 -12.637552 36.722511 -57.568558 2.081200 -10.924686 39.562145 -4.700632 -6.086139 -14.039820 -7.740093 -5.144575 -60.607323 -8.813519 38.602749 41.284714 4.559484 6.225949 -35.681412 -16.026539 -8.495812 
-7.774784 50.671227 -32.337795 30.803637 -18.086935 38.418129 22.053328 15.232919 8.981717 -29.237961 -5.267198 1.346583 -18.718460 -12.319554 -6.665034 6.515580 19.171309 -17.824955 -5.788594 -15.737329 -1.465587 15.684426 -8.008639 16.761686 -39.854527 4.689423 4.338187 8.524705 12.647240 -95.794327 7.611086 14.174596 -1.900835 -17.603334 33.156635 31.523891 42.555893 -5.632508 5.313914 -8.534408 -12.637552 35.716656 -58.872952 2.285784 -10.622358 38.534264 -4.775261 -5.933315 -10.211832 -10.118106 -5.305471 -61.413803 -9.405681 38.651569 41.195229 4.559708 6.247589 -36.960407 -16.794744 -9.497483 
-8.103172 50.785492 -32.020607 31.949183 -18.819393 39.856201 21.373905 14.687560 9.133256 -29.614840 -5.529372 1.523243 -18.535625 -12.740995 -7.145558 5.640957 19.639269 -19.053951 -5.788594 -15.737329 -1.465587 16.011518 -8.234227 17.689892 -39.925087 4.712440 4.361050 8.524705 12.647240 -94.602913 7.611086 14.174596 -1.900835 -16.900364 35.135872 31.750944 42.739346 -5.688386 5.370985 -8.534408 -12.637552 34.408062 -60.234142 2.306091 -10.752350 37.395027 -4.861590 -5.793698 -6.222630 -11.578006 -4.938095 -62.456184 -10.002848 39.206844 41.047604 4.569448 6.218895 -38.436443 -17.266665 -10.521360 
-8.409158 50.881512 -31.732544 33.152264 -19.953941 41.393555 20.271206 14.666332 9.027598 -29.410225 -5.617513 1.538978 -18.574917 -13.358731 -7.510451 4.539519 20.172091 -20.255131 -5.788594 -15.737329 -1.465587 16.202789 -8.230770 20.562443 -39.914818 4.705860 4.353711 8.524705 12.647240 -90.940804 7.611086 14.174596 -1.900835 -16.692959 37.972820 31.720972 42.525372 -5.621544 5.297013 -8.534408 -12.637552 33.421738 -62.191269 2.061405 -12.305780 36.264576 -4.941050 -5.660583 -1.680082 -10.890022 -3.968627 -63.852032 -11.077024 38.149311 40.830830 4.579167 6.193892 -38.682072 -17.187368 -10.610863 
